# xmcd
#
# Track frame offsets: 
#        150
#        16112
#        31141
#        47041
#        62574
#        76984
#        94833
#        109737
#        121632
#        137676
#        153566
#        169478
#        185470
#        200992
#        219485
#        231703
#        247442
#        262243
#        278012
#        292921
#        309496
#
# Disc length: 4306 seconds
#
# Revision: 0
# Processed by: cddbd v1.5.2PL0 Copyright (c) Steve Scherf et al.
# Submitted via: ExactAudioCopy v1.2
#
DISCID=3910d015
DTITLE=Various Artist - 6th European Blues Challenge
DYEAR=2016
DGENRE=Sampler Blues
TTITLE0=ULRICH ELLISON AND TRIBE - Chasing Down Your Dream
TTITLE1=TINY LEGS TIM - Stepping Up
TTITLE2=BLUESTREAM - Playin' With My Band
TTITLE3=ZAMBA - I Found The Blues
TTITLE4=CHRISTIAN BUNDGAARD - Jumpin' In Copenhagen
TTITLE5=TANEL PADAR BLUES BAND - Iga Paev
TTITLE6=LENA AND THE SLIDE BROTHERS - I Won't Sing Hallelujah
TTITLE7=GAS BLUES BAND - Habanero Boogie
TTITLE8=WELLBAD - One Kiss Too Late
TTITLE9=MOJOWORKINGS - Pawn Shop
TTITLE10=PAUL VENTURI and THE JUNKERS - Good Liquor Gonna Carry Me Down
TTITLE11=JOHNNY B. BEAST - Evil Eyes
TTITLE12=PHIL BEE'S FREEDOM - I'll Take Care
TTITLE13=ERIC SLIM ZAHL and THE SOUTH WEST SWINGERS - King's Hotel
TTITLE14=BLUES JUNKERS - Blues Junkers
TTITLE15=BUDDA POWER BLUES - I've Been Down
TTITLE16=JURAJ  SCHWEIGERT and THE GROOVE TIME - Harold The Squirrel
TTITLE17=WAX and BOOGIE RHYTHM COMBO - Ten Minute Boogie
TTITLE18=IDA BANG and THE BLUE TEARS - Come On Home
TTITLE19=JOHNNY FONTANE AND THE RIVALS - Help Me
TTITLE20=RED BUTLER - Jaywalker
EXTD=
EXTT0=
EXTT1=
EXTT2=
EXTT3=
EXTT4=
EXTT5=
EXTT6=
EXTT7=
EXTT8=
EXTT9=
EXTT10=
EXTT11=
EXTT12=
EXTT13=
EXTT14=
EXTT15=
EXTT16=
EXTT17=
EXTT18=
EXTT19=
EXTT20=
PLAYORDER=
